<?xml version="1.0" standalone="no"?><!DOCTYPE svg PUBLIC "-//W3C//DTD SVG 1.1//EN" "http://www.w3.org/Graphics/SVG/1.1/DTD/svg11.dtd"><svg t="1492677399205" class="icon" style="" viewBox="0 0 1024 1024" version="1.1" xmlns="http://www.w3.org/2000/svg" p-id="2966" xmlns:xlink="http://www.w3.org/1999/xlink" width="32" height="32"><defs><style type="text/css"></style></defs><path d="M763.348 92.089 572.846 92.089c-6.995-27.076-31.619-47.128-60.847-47.128-29.228 0-53.852 20.052-60.846 47.128L260.65 92.089c-43.308 0-78.545 35.231-78.545 78.531l0 659.789c0 43.308 35.239 78.563 78.545 78.563l502.698 0c43.308 0 78.547-35.255 78.547-78.563L841.895 170.62C841.896 127.32 806.655 92.089 763.348 92.089zM511.999 76.38c17.32 0 31.419 14.083 31.419 31.434 0 17.306-14.099 31.389-31.418 31.389-17.321 0-31.42-14.083-31.42-31.389C480.58 90.463 494.679 76.38 511.999 76.38zM810.475 830.409c0 26.003-21.142 47.128-47.127 47.128L260.65 877.537c-25.986 0-47.126-21.124-47.126-47.128L213.524 170.62c0-25.964 21.14-47.113 47.126-47.113l190.497 0c1.439 5.57 3.641 10.833 6.458 15.695l-71.281 0c-8.668 0-15.709 7.042-15.709 15.725 0 8.666 7.042 15.694 15.709 15.694l251.347 0c8.685 0 15.711-7.028 15.711-15.694 0-8.684-7.026-15.725-15.711-15.725l-71.28 0c2.817-4.862 5.021-10.125 6.459-15.695l190.497 0c25.985 0 47.127 21.149 47.127 47.113L810.474 830.409zM637.672 217.749c8.685 0 15.711-7.026 15.711-15.695 0-8.684-7.026-15.71-15.711-15.71L386.325 186.344c-8.668 0-15.709 7.027-15.709 15.71 0 8.669 7.042 15.695 15.709 15.695L637.672 217.749zM742.405 327.69l-340.355 0.068c-8.685 0-15.71 7.013-15.71 15.694 0 8.684 7.025 15.71 15.71 15.71l340.355-0.069c8.684 0 15.71-7.026 15.71-15.695C758.115 334.716 751.074 327.69 742.405 327.69zM310.862 312.02l-6.167 0c-15.619 0-28.336 12.718-28.336 28.325l0 6.168c0 15.632 12.718 28.335 28.336 28.335l6.167 0c15.618 0 28.336-12.703 28.336-28.335l0-6.168C339.198 324.738 326.479 312.02 310.862 312.02zM310.862 437.685l-6.167 0c-15.619 0-28.336 12.725-28.336 28.343l0 6.15c0 15.626 12.718 28.344 28.336 28.344l6.167 0c15.618 0 28.336-12.718 28.336-28.344l0-6.15C339.198 450.41 326.479 437.685 310.862 437.685zM310.862 563.344l-6.167 0c-15.619 0-28.336 12.741-28.336 28.357l0 6.185c0 15.615 12.718 28.326 28.336 28.326l6.167 0c15.618 0 28.336-12.711 28.336-28.326l0-6.185C339.198 576.085 326.479 563.344 310.862 563.344zM310.862 689.032l-6.167 0c-15.619 0-28.336 12.727-28.336 28.345l0 6.166c0 15.618 12.718 28.33 28.336 28.33l6.167 0c15.618 0 28.336-12.712 28.336-28.33l0-6.166C339.198 701.76 326.479 689.032 310.862 689.032zM742.405 453.363l-340.355 0.069c-8.685 0-15.71 7.026-15.71 15.694 0 8.684 7.025 15.726 15.71 15.726l340.355-0.07c8.684 0 15.71-7.026 15.71-15.717C758.115 460.383 751.074 453.363 742.405 453.363zM742.405 579.03l-340.371 0.062c-8.669 0-15.709 7.056-15.709 15.725 0 8.668 7.041 15.71 15.709 15.71l340.371-0.062c8.684 0 15.71-7.042 15.71-15.71S751.074 579.03 742.405 579.03zM742.405 704.721l-340.372 0.067c-8.669 0-15.709 7.025-15.709 15.694 0 8.691 7.041 15.708 15.709 15.708l340.372-0.067c8.684 0 15.71-7.042 15.71-15.695C758.115 711.747 751.074 704.721 742.405 704.721z" p-id="2967" fill="#ffffff"></path></svg>