<?xml version="1.0" standalone="no"?><!DOCTYPE svg PUBLIC "-//W3C//DTD SVG 1.1//EN" "http://www.w3.org/Graphics/SVG/1.1/DTD/svg11.dtd"><svg t="1490608998393" class="icon" style="" viewBox="0 0 1024 1024" version="1.1" xmlns="http://www.w3.org/2000/svg" p-id="2374" xmlns:xlink="http://www.w3.org/1999/xlink" width="32" height="32"><defs><style type="text/css"></style></defs><path d="M512.54784 683.12576c139.923456 0 253.65504-111.437824 253.65504-248.352768L766.20288 313.360384c0-136.905728-113.731584-248.337408-253.65504-248.337408-139.777024 0-253.6704 111.43168-253.6704 248.337408L258.87744 434.772992C258.87744 571.687936 372.770816 683.12576 512.54784 683.12576zM299.14112 313.360384c0-115.300352 95.771648-209.004544 213.40672-209.004544 117.781504 0 213.553152 93.704192 213.553152 209.004544L726.100992 434.772992c0 115.308544-95.771648 209.014784-213.553152 209.014784-117.635072 0-213.40672-93.70624-213.40672-209.014784L299.14112 313.360384zM857.50272 656.154624l-97.424384-26.5216c-10.622976-2.980864-21.700608 3.12832-24.695808 13.559808-2.998272 10.573824 3.286016 21.45792 13.9264 24.280064l97.129472 26.667008c48.480256 13.55776 73.018368 36.04992 73.018368 66.733056l0 92.526592c0 36.48512-30.224384 66.137088-67.49184 66.137088L169.536512 919.53664c-37.26848 0-67.492864-29.651968-67.492864-66.137088l0-92.526592c0-11.318272 0-46.029824 72.725504-66.733056l101.92384-27.568128c10.77248-2.968576 17.056768-13.705216 14.05952-24.266752-2.980864-10.447872-14.05952-16.543744-24.69888-13.704192l-102.21568 27.698176C79.450112 680.274944 61.780992 726.463488 61.780992 760.871936l0 92.526592c0 58.248192 48.330752 105.475072 107.75552 105.475072l682.426368 0c59.42272 0 107.75552-47.22688 107.75552-105.475072l0-92.526592C959.719424 726.319104 942.047232 679.983104 857.50272 656.154624z" p-id="2375" fill="#ffffff"></path></svg>