<?xml version="1.0" standalone="no"?><!DOCTYPE svg PUBLIC "-//W3C//DTD SVG 1.1//EN" "http://www.w3.org/Graphics/SVG/1.1/DTD/svg11.dtd"><svg t="1490609315436" class="icon" style="" viewBox="0 0 1024 1024" version="1.1" xmlns="http://www.w3.org/2000/svg" p-id="5254" xmlns:xlink="http://www.w3.org/1999/xlink" width="32" height="32"><defs><style type="text/css"></style></defs><path d="M803.669333 685.738667 803.669333 411.272533c0-142.830933-103.3728-261.307733-239.274667-285.405867L564.394667 104.072533c0-18.8416-15.291733-34.133333-34.116267-34.133333l-34.133333 0c-18.858667 0-34.133333 15.291733-34.133333 34.133333l0 21.896533c-135.6288 24.3712-238.592 142.6944-238.592 285.303467L223.419733 685.738667l-119.808 96.9728 0 55.330133L922.794667 838.0416l0-55.330133L803.669333 685.738667zM888.661333 803.908267 137.745067 803.908267l0-4.898133 107.127467-86.7328 12.663467-10.24L257.536 685.738667 257.536 411.272533c0-141.1584 114.8416-256 256-256 141.124267 0 255.982933 114.8416 255.982933 256L769.518933 685.738667l0 16.2304 12.561067 10.24 106.564267 86.7328L888.644267 803.908267z" p-id="5255" fill="#ffffff"></path><path d="M513.1776 957.2352c47.1552 0 85.418667-38.161067 85.418667-85.333333L427.810133 871.901867C427.844267 919.074133 466.090667 957.2352 513.1776 957.2352z" p-id="5256" fill="#ffffff"></path></svg>