<?xml version="1.0" encoding="UTF-8"?>
<svg width="83px" height="42px" viewBox="0 0 83 42" version="1.1" xmlns="http://www.w3.org/2000/svg" xmlns:xlink="http://www.w3.org/1999/xlink">
    <!-- Generator: Sketch 41.2 (35397) - http://www.bohemiancoding.com/sketch -->
    <title>Group 33</title>
    <desc>Created with Sketch.</desc>
    <defs>
        <circle id="path-1" cx="8" cy="8" r="8"></circle>
        <mask id="mask-2" maskContentUnits="userSpaceOnUse" maskUnits="objectBoundingBox" x="0" y="0" width="16" height="16" fill="white">
            <use xlink:href="#path-1"></use>
        </mask>
        <ellipse id="path-3" cx="8" cy="21" rx="8" ry="8"></ellipse>
        <mask id="mask-4" maskContentUnits="userSpaceOnUse" maskUnits="objectBoundingBox" x="0" y="0" width="16" height="16" fill="white">
            <use xlink:href="#path-3"></use>
        </mask>
        <ellipse id="path-5" cx="8" cy="34" rx="8" ry="8"></ellipse>
        <mask id="mask-6" maskContentUnits="userSpaceOnUse" maskUnits="objectBoundingBox" x="0" y="0" width="16" height="16" fill="white">
            <use xlink:href="#path-5"></use>
        </mask>
        <ellipse id="path-7" cx="21" cy="8" rx="8" ry="8"></ellipse>
        <mask id="mask-8" maskContentUnits="userSpaceOnUse" maskUnits="objectBoundingBox" x="0" y="0" width="16" height="16" fill="white">
            <use xlink:href="#path-7"></use>
        </mask>
        <ellipse id="path-9" cx="21" cy="21" rx="8" ry="8"></ellipse>
        <mask id="mask-10" maskContentUnits="userSpaceOnUse" maskUnits="objectBoundingBox" x="0" y="0" width="16" height="16" fill="white">
            <use xlink:href="#path-9"></use>
        </mask>
        <ellipse id="path-11" cx="21" cy="34" rx="8" ry="8"></ellipse>
        <mask id="mask-12" maskContentUnits="userSpaceOnUse" maskUnits="objectBoundingBox" x="0" y="0" width="16" height="16" fill="white">
            <use xlink:href="#path-11"></use>
        </mask>
        <ellipse id="path-13" cx="34" cy="8" rx="8" ry="8"></ellipse>
        <mask id="mask-14" maskContentUnits="userSpaceOnUse" maskUnits="objectBoundingBox" x="0" y="0" width="16" height="16" fill="white">
            <use xlink:href="#path-13"></use>
        </mask>
        <ellipse id="path-15" cx="34" cy="21" rx="8" ry="8"></ellipse>
        <mask id="mask-16" maskContentUnits="userSpaceOnUse" maskUnits="objectBoundingBox" x="0" y="0" width="16" height="16" fill="white">
            <use xlink:href="#path-15"></use>
        </mask>
        <ellipse id="path-17" cx="34" cy="34" rx="8" ry="8"></ellipse>
        <mask id="mask-18" maskContentUnits="userSpaceOnUse" maskUnits="objectBoundingBox" x="0" y="0" width="16" height="16" fill="white">
            <use xlink:href="#path-17"></use>
        </mask>
    </defs>
    <g id="Page-1" stroke="none" stroke-width="1" fill="none" fill-rule="evenodd">
        <g id="Artboard-2" transform="translate(-1141.000000, -198.000000)">
            <g id="Group-33" transform="translate(1141.000000, 198.000000)">
                <g id="Group-33-Copy" transform="translate(20.000000, 0.000000)" stroke="#FFFFFF" stroke-width="2" fill="#2F3B58">
                    <use id="Oval-15" mask="url(#mask-2)" xlink:href="#path-1"></use>
                    <use id="Oval-15-Copy-12" mask="url(#mask-4)" xlink:href="#path-3"></use>
                    <use id="Oval-15-Copy-15" mask="url(#mask-6)" xlink:href="#path-5"></use>
                    <use id="Oval-15-Copy-10" mask="url(#mask-8)" xlink:href="#path-7"></use>
                    <use id="Oval-15-Copy-13" mask="url(#mask-10)" xlink:href="#path-9"></use>
                    <use id="Oval-15-Copy-16" mask="url(#mask-12)" xlink:href="#path-11"></use>
                    <use id="Oval-15-Copy-11" mask="url(#mask-14)" xlink:href="#path-13"></use>
                    <use id="Oval-15-Copy-14" mask="url(#mask-16)" xlink:href="#path-15"></use>
                    <use id="Oval-15-Copy-17" mask="url(#mask-18)" xlink:href="#path-17"></use>
                </g>
                <path d="M20.0010592,17.8521038 C-3.15404188,17.8521038 -6.140264,28.7879032 14.1038469,29.819234 C34.3479577,30.8505649 49.6834668,16.6495179 72.5587945,19.1037638 C87.8989998,21.0795164 83.4239975,30.8521038 61.4967845,30.8521038" id="Path-12" stroke="#586279"></path>
                <path d="M21.1973477,12.895645 C-3.97164531,12.895645 -5.84207351,23.6489661 14.4351158,24.6673221 C34.7123051,25.685678 50.0728721,11.6632908 72.9855776,14.0866604 C88.3508484,16.0375566 82.6526674,25.895645 60.315124,25.895645" id="Path-12" stroke="#586279"></path>
            </g>
        </g>
    </g>
</svg>