<?xml version="1.0" encoding="UTF-8"?>
<svg width="64px" height="63px" viewBox="0 0 64 63" version="1.1" xmlns="http://www.w3.org/2000/svg" xmlns:xlink="http://www.w3.org/1999/xlink">
    <!-- Generator: Sketch 41.2 (35397) - http://www.bohemiancoding.com/sketch -->
    <title>Group 7</title>
    <desc>Created with Sketch.</desc>
    <defs>
        <path d="M3.68972493,2.28665094 C3.82589357,1.18691708 4.82411083,0.295406632 5.93386015,0.295406632 L47.4055431,0.295406632 C48.5087761,0.295406632 49.5151992,1.17963639 49.655513,2.28665094 L52.6997283,26.3041623 C52.8391194,27.4038962 52.0632021,28.2954066 50.9588177,28.2954066 L2.46263091,28.2954066 C1.36176146,28.2954066 0.578815452,27.4111769 0.715885583,26.3041623 L3.68972493,2.28665094 Z" id="path-1"></path>
        <mask id="mask-2" maskContentUnits="userSpaceOnUse" maskUnits="objectBoundingBox" x="0" y="0" width="52" height="28" fill="white">
            <use xlink:href="#path-1"></use>
        </mask>
        <path d="M28.1701676,4.2120331 C28.1492241,3.65730623 28.5755102,3.20761125 29.1346663,3.20761125 L32.32883,3.20761125 C32.8824514,3.20761125 33.3577282,3.6517605 33.3911288,4.2120331 L33.5819287,7.41257454 C33.6149987,7.96730141 33.1888338,8.41699639 32.6424946,8.41699639 L29.3282369,8.41699639 C28.7763318,8.41699639 28.3121556,7.97284714 28.2910027,7.41257454 L28.1701676,4.2120331 Z" id="path-3"></path>
        <mask id="mask-4" maskContentUnits="userSpaceOnUse" maskUnits="objectBoundingBox" x="0" y="0" width="5.41430303" height="5.20938514" fill="white">
            <use xlink:href="#path-3"></use>
        </mask>
        <path d="M8.29591129,11.2487435 C8.36250219,10.701829 8.85674401,10.2584672 9.41955869,10.2584672 L13.0240728,10.2584672 C13.5780552,10.2584672 13.9988574,10.6972391 13.9632998,11.2487435 L13.7146186,15.1058322 C13.6793569,15.6527466 13.2039257,16.0961084 12.6422727,16.0961084 L8.7142075,16.0961084 C8.15722893,16.0961084 7.75913233,15.6573365 7.82628208,15.1058322 L8.29591129,11.2487435 Z" id="path-5"></path>
        <mask id="mask-6" maskContentUnits="userSpaceOnUse" maskUnits="objectBoundingBox" x="0" y="0" width="6.14650342" height="5.83764121" fill="white">
            <use xlink:href="#path-5"></use>
        </mask>
        <path d="M18.1022753,19.045835 C18.1168378,18.497757 18.5846576,18.0534521 19.1294091,18.0534521 L32.9344924,18.0534521 C33.4872003,18.0534521 33.9678593,18.5005047 34.007627,19.045835 L34.278355,22.7583057 C34.318323,23.3063836 33.9127731,23.7506886 33.3511379,23.7506886 L18.9768525,23.7506886 C18.4247966,23.7506886 17.9891452,23.303636 18.0036346,22.7583057 L18.1022753,19.045835 Z" id="path-7"></path>
        <mask id="mask-8" maskContentUnits="userSpaceOnUse" maskUnits="objectBoundingBox" x="0" y="0" width="16.2777875" height="5.69723647" fill="white">
            <use xlink:href="#path-7"></use>
        </mask>
        <path d="M18.0167489,11.2589305 C18.0206062,10.7063899 18.4634611,10.2584672 19.0161671,10.2584672 L22.8816597,10.2584672 C23.4297658,10.2584672 23.8740936,10.715139 23.8740936,11.2589305 L23.8740936,15.0778273 C23.8740936,15.6303679 23.431312,16.0782906 22.8747676,16.0782906 L18.9824304,16.0782906 C18.4305179,16.0782906 17.9862925,15.6216188 17.9900888,15.0778273 L18.0167489,11.2589305 Z" id="path-9"></path>
        <mask id="mask-10" maskContentUnits="userSpaceOnUse" maskUnits="objectBoundingBox" x="0" y="0" width="5.88402902" height="5.81982342" fill="white">
            <use xlink:href="#path-9"></use>
        </mask>
        <path d="M29.4703349,11.2574863 C29.4505863,10.7057433 29.8833717,10.2584672 30.4317193,10.2584672 L36.5694308,10.2584672 C37.1201373,10.2584672 37.5311789,9.81403244 37.4878991,9.2705803 L37.0794329,4.1415907 C37.0359824,3.59599582 37.4463375,3.15370379 37.9911884,3.15370379 L43.1333793,3.15370379 C43.6803785,3.15370379 44.1848816,3.59830813 44.2600831,4.14576852 L45.7617558,15.0778248 C45.8370179,15.625727 45.4463004,16.0698895 44.9056489,16.0698895 L30.6349668,16.0698895 C30.0868899,16.0698895 29.6262636,15.6138769 29.6068278,15.0708704 L29.4703349,11.2574863 Z" id="path-11"></path>
        <mask id="mask-12" maskContentUnits="userSpaceOnUse" maskUnits="objectBoundingBox" x="0" y="0" width="16.3013613" height="12.9161857" fill="white">
            <use xlink:href="#path-11"></use>
        </mask>
        <path d="M38.6830693,19.0519805 C38.6332669,18.5005085 39.0387988,18.0534521 39.5840483,18.0534521 L44.7300011,18.0534521 C45.2774005,18.0534521 45.7925284,18.5032732 45.8775175,19.0389071 L46.474372,22.8005152 C46.5607284,23.344767 46.1828355,23.7859702 45.6321166,23.7859702 L40.1092044,23.7859702 C39.5576831,23.7859702 39.0699644,23.3361491 39.0204117,22.7874418 L38.6830693,19.0519805 Z" id="path-13"></path>
        <mask id="mask-14" maskContentUnits="userSpaceOnUse" maskUnits="objectBoundingBox" x="0" y="0" width="7.80773411" height="5.7325181" fill="white">
            <use xlink:href="#path-13"></use>
        </mask>
        <path d="M7.13420743,19.0468511 C7.20550617,18.498212 7.71970945,18.0534521 8.26601063,18.0534521 L12.3328305,18.0534521 C12.8866094,18.0534521 13.305101,18.5009624 13.2679755,19.0468511 L13.015234,22.7631232 C12.9779214,23.3117624 12.5060219,23.7565222 11.9436869,23.7565222 L7.52614577,23.7565222 C6.97165927,23.7565222 6.58031564,23.3090119 6.65125694,22.7631232 L7.13420743,19.0468511 Z" id="path-15"></path>
        <mask id="mask-16" maskContentUnits="userSpaceOnUse" maskUnits="objectBoundingBox" x="0" y="0" width="6.62731483" height="5.70307014" fill="white">
            <use xlink:href="#path-15"></use>
        </mask>
        <path d="M18.0028279,4.21807577 C18.0028279,3.66791292 18.4571701,3.22191781 18.9954116,3.22191781 L22.5622298,3.22191781 C23.1104186,3.22191781 23.5548135,3.66241281 23.5548135,4.21807577 L23.5548135,7.39228471 C23.5548135,7.94244757 23.1004713,8.38844268 22.5622298,8.38844268 L18.9954116,8.38844268 C18.4472227,8.38844268 18.0028279,7.94794767 18.0028279,7.39228471 L18.0028279,4.21807577 Z" id="path-17"></path>
        <mask id="mask-18" maskContentUnits="userSpaceOnUse" maskUnits="objectBoundingBox" x="0" y="0" width="5.55198569" height="5.16652487" fill="white">
            <use xlink:href="#path-17"></use>
        </mask>
        <path d="M9.06340611,4.21836034 C9.13162573,3.66804033 9.64010821,3.22191781 10.1866961,3.22191781 L13.502462,3.22191781 C14.0546183,3.22191781 14.4725385,3.66253865 14.4350849,4.21836034 L14.2211322,7.39347606 C14.1840493,7.94379608 13.7139606,8.38991859 13.1514428,8.38991859 L9.54882986,8.38991859 C8.99513962,8.38991859 8.60090592,7.94929775 8.66980754,7.39347606 L9.06340611,4.21836034 Z" id="path-19"></path>
        <mask id="mask-20" maskContentUnits="userSpaceOnUse" maskUnits="objectBoundingBox" x="0" y="0" width="5.77542836" height="5.16800079" fill="white">
            <use xlink:href="#path-19"></use>
        </mask>
        <path d="M56.3733904,17.0894926 C63.292688,12.6318118 72.3576862,8.1205238 72.3576862,8.1205238 C74.9109674,6.72942755 76.1350579,7.84566541 74.7796385,10.6246871 L62.008546,35.5070089 C61.3654271,36.825598 60.1573621,37.6596031 59.2237035,38.2608519 L33.3701636,53.8616308 C29.7722953,56.0773278 29.446716,54.3704926 30.8882092,51.4149935 L36.8330333,39.2262979" id="path-21"></path>
        <mask id="mask-22" maskContentUnits="userSpaceOnUse" maskUnits="objectBoundingBox" x="0" y="0" width="45.2505199" height="47.3491701" fill="white">
            <use xlink:href="#path-21"></use>
        </mask>
        <path d="M76.9459826,17.0894926 C83.8652801,12.6318118 92.9302783,8.1205238 92.9302783,8.1205238 C95.4835596,6.72942755 96.7076501,7.84566541 95.3522307,10.6246871 L82.5811381,35.5070089 C81.9195197,36.8635276 80.7299543,37.6596031 79.7962956,38.2608519 L53.9427558,53.8616308 C50.3448875,56.0773278 50.0193082,54.3704926 51.4608014,51.4149935 L57.4110776,39.2151193" id="path-23"></path>
        <mask id="mask-24" maskContentUnits="userSpaceOnUse" maskUnits="objectBoundingBox" x="0" y="0" width="45.2505199" height="47.3491701" fill="white">
            <use xlink:href="#path-23"></use>
        </mask>
        <path d="M37.2000595,17.2137781 C42.1091956,14.7965825 51.9274678,9.96219135 51.9274678,9.96219135 C55.8948422,8.00870715 57.2428421,9.48467724 54.9426399,13.2517716 L40.9470069,36.1727431 C40.2410218,37.3955452 39.1030918,38.2922748 38.112024,38.7968199 C38.112024,38.7968199 25.9847174,44.9611315 12.1164588,52.1110367 C6.75706374,54.7689473 7.22321371,52.7453783 9.20284911,49.3165492 C15.8782608,37.754397 22.9781926,25.4569543 22.9781926,25.4569543 C23.5308552,24.4997147 24.780439,23.3290397 25.7693468,22.8421143 C25.7693468,22.8421143 30.2030959,20.6589931 32.4199705,19.5674325 C32.7400894,19.4098101 37.0171842,17.3038235 37.2000595,17.2137781 Z" id="path-25"></path>
        <mask id="mask-26" maskContentUnits="userSpaceOnUse" maskUnits="objectBoundingBox" x="0" y="0" width="48.2366531" height="44.2325645" fill="white">
            <use xlink:href="#path-25"></use>
        </mask>
    </defs>
    <g id="Page-1" stroke="none" stroke-width="1" fill="none" fill-rule="evenodd">
        <g id="Artboard-2" transform="translate(-515.000000, -406.000000)" stroke-width="2">
            <g id="Group-7" transform="translate(494.000000, 406.000000)">
                <g id="Group-23-Copy-2" transform="translate(27.000000, 17.000000)" stroke="#FFFFFF">
                    <use id="Rectangle-8" mask="url(#mask-2)" fill="#2F3B58" xlink:href="#path-1"></use>
                    <use id="Rectangle-35-Copy-9" mask="url(#mask-4)" xlink:href="#path-3"></use>
                    <use id="Rectangle-35-Copy" mask="url(#mask-6)" xlink:href="#path-5"></use>
                    <use id="Rectangle-35-Copy-11" mask="url(#mask-8)" xlink:href="#path-7"></use>
                    <use id="Rectangle-35-Copy-6" mask="url(#mask-10)" xlink:href="#path-9"></use>
                    <use id="Rectangle-35-Copy-10" mask="url(#mask-12)" xlink:href="#path-11"></use>
                    <use id="Rectangle-35-Copy-12" mask="url(#mask-14)" xlink:href="#path-13"></use>
                    <use id="Rectangle-35-Copy-2" mask="url(#mask-16)" xlink:href="#path-15"></use>
                    <use id="Rectangle-35-Copy-5" mask="url(#mask-18)" xlink:href="#path-17"></use>
                    <use id="Rectangle-35" mask="url(#mask-20)" xlink:href="#path-19"></use>
                </g>
                <g id="Group-32" stroke="#586279">
                    <use id="Rectangle-27-Copy-5" mask="url(#mask-22)" transform="translate(52.713704, 31.196837) rotate(-26.000000) translate(-52.713704, -31.196837) " xlink:href="#path-21"></use>
                    <use id="Rectangle-27-Copy-6" mask="url(#mask-24)" transform="translate(73.286296, 31.196837) rotate(-26.000000) translate(-73.286296, -31.196837) " xlink:href="#path-23"></use>
                    <use id="Rectangle-27-Copy-5" mask="url(#mask-26)" transform="translate(31.946623, 31.215555) rotate(-30.000000) translate(-31.946623, -31.215555) " xlink:href="#path-25"></use>
                </g>
            </g>
        </g>
    </g>
</svg>