<?xml version="1.0" encoding="UTF-8"?>
<svg width="83px" height="64px" viewBox="0 0 83 64" version="1.1" xmlns="http://www.w3.org/2000/svg" xmlns:xlink="http://www.w3.org/1999/xlink">
    <!-- Generator: Sketch 41.2 (35397) - http://www.bohemiancoding.com/sketch -->
    <title>Group 28</title>
    <desc>Created with Sketch.</desc>
    <defs></defs>
    <g id="Page-1" stroke="none" stroke-width="1" fill="none" fill-rule="evenodd">
        <g id="Artboard-2" transform="translate(-824.000000, -405.000000)">
            <g id="Group-28" transform="translate(825.000000, 406.000000)">
                <g id="Group-15" stroke-opacity="0.2" stroke="#FFFFFF">
                    <path d="M1.33391431,61.7241517 C1.33391431,61.7241517 7.92184867,0.334455282 14.5510983,0.364148361 C21.1803478,0.393841441 21.1815166,61.8444767 27.824844,61.8428073 C34.4681715,61.8411379 34.4718989,0.351899627 41.1226139,0.357471095 C47.7733289,0.363042562 47.7413704,61.8718745 54.422921,61.8650892 C61.1044716,61.8583038 61.168698,0.350953581 67.841165,0.330337619 C74.513632,0.309721657 74.4385161,61.86537 81.1324241,61.7825646" id="Path-9"></path>
                    <path d="M0,61.3938193 C0,61.3938193 6.58793437,0.00412284041 13.217184,0.0338159197 C19.8464335,0.0635089989 19.8476023,61.5141443 26.4909297,61.5124748 C33.1342571,61.5108054 33.1379846,0.0215671851 39.7886996,0.0271386528 C46.4394146,0.0327101205 46.407456,61.541542 53.0890067,61.5347567 C59.7705573,61.5279714 59.8347837,0.0206211392 66.5072507,5.17730365e-06 C73.1797177,-0.0206107846 73.1046017,61.5350375 79.7985098,61.4522322" id="Path-9-Copy" transform="translate(39.899255, 30.767378) scale(1, -1) translate(-39.899255, -30.767378) "></path>
                </g>
                <g id="端口扫描" transform="translate(21.000000, 14.000000)">
                    <g id="Group-6">
                        <g id="根源分析">
                            <g id="Group-4" transform="translate(0.135000, 0.704286)">
                                <g id="端口">
                                    <g id="Group-2" transform="translate(-0.000000, 0.000000)">
                                        <polygon id="Path" stroke="#FFFFFF" fill="#2F3B58" points="39.1827568 10.8440927 32.2084865 10.8440927 32.2084865 3.62074131 28.7213514 3.62074131 28.7213514 0.00906563706 11.2856757 0.00906563706 11.2856757 3.62074131 7.79854054 3.62074131 7.79854054 10.8440927 0.82427027 10.8440927 0.82427027 32.5141467 39.1827568 32.5141467"></polygon>
                                        <polygon id="Path" fill="#2F3B58" points="35.6956216 28.902471 4.31140541 28.902471 4.31140541 14.4557683 7.79854054 14.4557683 11.2856757 14.4557683 11.2856757 10.8440927 11.2856757 7.23241699 14.7728108 7.23241699 14.7728108 3.62074131 25.2342162 3.62074131 25.2342162 7.23241699 28.7213514 7.23241699 28.7213514 10.8440927 28.7213514 14.4557683 32.2084865 14.4557683 35.6956216 14.4557683"></polygon>
                                        <polygon id="Path" fill="#FFFFFF" points="28.7213514 18.067444 32.2084865 18.067444 32.2084865 25.2907954 28.7213514 25.2907954"></polygon>
                                        <polygon id="Path" fill="#FFFFFF" points="21.7470811 18.067444 25.2342162 18.067444 25.2342162 25.2907954 21.7470811 25.2907954"></polygon>
                                        <polygon id="Path" fill="#FFFFFF" points="14.7728108 18.067444 18.2599459 18.067444 18.2599459 25.2907954 14.7728108 25.2907954"></polygon>
                                        <polygon id="Path" fill="#FFFFFF" points="7.79854054 18.067444 11.2856757 18.067444 11.2856757 25.2907954 7.79854054 25.2907954"></polygon>
                                    </g>
                                </g>
                            </g>
                        </g>
                    </g>
                </g>
            </g>
        </g>
    </g>
</svg>