<?xml version="1.0" encoding="UTF-8"?>
<svg width="13px" height="13px" viewBox="0 0 13 13" version="1.1" xmlns="http://www.w3.org/2000/svg" xmlns:xlink="http://www.w3.org/1999/xlink">
    <!-- Generator: Sketch 41.2 (35397) - http://www.bohemiancoding.com/sketch -->
    <title>Combined Shape</title>
    <desc>Created with Sketch.</desc>
    <defs></defs>
    <g id="Page-1" stroke="none" stroke-width="1" fill="none" fill-rule="evenodd" fill-opacity="0.87">
        <g id="16漏挖_任务2" transform="translate(-138.000000, -90.000000)" fill="#000000">
            <path d="M145.513708,95.1137085 L145.513708,89.516309 C145.513708,88.8460571 144.97645,88.3137085 144.313708,88.3137085 C143.646346,88.3137085 143.113708,88.8521311 143.113708,89.516309 L143.113708,95.1137085 L137.516309,95.1137085 C136.846057,95.1137085 136.313708,95.6509668 136.313708,96.3137085 C136.313708,96.9810707 136.852131,97.5137085 137.516309,97.5137085 L143.113708,97.5137085 L143.113708,103.111108 C143.113708,103.78136 143.650967,104.313708 144.313708,104.313708 C144.981071,104.313708 145.513708,103.775286 145.513708,103.111108 L145.513708,97.5137085 L151.111108,97.5137085 C151.78136,97.5137085 152.313708,96.9764502 152.313708,96.3137085 C152.313708,95.6463463 151.775286,95.1137085 151.111108,95.1137085 L145.513708,95.1137085 Z" id="Combined-Shape" transform="translate(144.313708, 96.313708) rotate(-315.000000) translate(-144.313708, -96.313708) "></path>
        </g>
    </g>
</svg>