<?xml version="1.0" encoding="UTF-8"?>
<svg width="12px" height="12px" viewBox="0 0 12 12" version="1.1" xmlns="http://www.w3.org/2000/svg" xmlns:xlink="http://www.w3.org/1999/xlink">
    <!-- Generator: Sketch 41.2 (35397) - http://www.bohemiancoding.com/sketch -->
    <title>Combined Shape</title>
    <desc>Created with Sketch.</desc>
    <defs></defs>
    <g id="Symbols" stroke="none" stroke-width="1" fill="none" fill-rule="evenodd">
        <g id="task-copy" transform="translate(-12.000000, -12.000000)" fill="#29B6F6">
            <g id="Group-4">
                <path d="M19.2,16.8 L19.2,11.2026005 C19.2,10.5323486 18.6627417,10 18,10 C17.3326378,10 16.8,10.5384226 16.8,11.2026005 L16.8,16.8 L11.2026005,16.8 C10.5323486,16.8 10,17.3372583 10,18 C10,18.6673622 10.5384226,19.2 11.2026005,19.2 L16.8,19.2 L16.8,24.7973995 C16.8,25.4676514 17.3372583,26 18,26 C18.6673622,26 19.2,25.4615774 19.2,24.7973995 L19.2,19.2 L24.7973995,19.2 C25.4676514,19.2 26,18.6627417 26,18 C26,17.3326378 25.4615774,16.8 24.7973995,16.8 L19.2,16.8 Z" id="Combined-Shape" transform="translate(18.000000, 18.000000) rotate(-315.000000) translate(-18.000000, -18.000000) "></path>
            </g>
        </g>
    </g>
</svg>