<?xml version="1.0" encoding="UTF-8"?>
<svg width="464px" height="435px" viewBox="0 0 464 435" version="1.1" xmlns="http://www.w3.org/2000/svg" xmlns:xlink="http://www.w3.org/1999/xlink">
    <!-- Generator: Sketch 41.2 (35397) - http://www.bohemiancoding.com/sketch -->
    <title>Group 3</title>
    <desc>Created with Sketch.</desc>
    <defs>
        <rect id="path-1" x="5" y="5" width="14" height="14" rx="2"></rect>
        <mask id="mask-2" maskContentUnits="userSpaceOnUse" maskUnits="objectBoundingBox" x="0" y="0" width="14" height="14" fill="white">
            <use xlink:href="#path-1"></use>
        </mask>
        <rect id="path-3" x="5" y="5" width="14" height="14" rx="2"></rect>
        <mask id="mask-4" maskContentUnits="userSpaceOnUse" maskUnits="objectBoundingBox" x="0" y="0" width="14" height="14" fill="white">
            <use xlink:href="#path-3"></use>
        </mask>
        <rect id="path-5" x="5" y="5" width="14" height="14" rx="2"></rect>
        <mask id="mask-6" maskContentUnits="userSpaceOnUse" maskUnits="objectBoundingBox" x="0" y="0" width="14" height="14" fill="white">
            <use xlink:href="#path-5"></use>
        </mask>
        <rect id="path-7" x="5" y="5" width="14" height="14" rx="2"></rect>
        <mask id="mask-8" maskContentUnits="userSpaceOnUse" maskUnits="objectBoundingBox" x="0" y="0" width="14" height="14" fill="white">
            <use xlink:href="#path-7"></use>
        </mask>
        <rect id="path-9" x="5" y="5" width="14" height="14" rx="2"></rect>
        <mask id="mask-10" maskContentUnits="userSpaceOnUse" maskUnits="objectBoundingBox" x="0" y="0" width="14" height="14" fill="white">
            <use xlink:href="#path-9"></use>
        </mask>
        <rect id="path-11" x="5" y="5" width="14" height="14" rx="2"></rect>
        <mask id="mask-12" maskContentUnits="userSpaceOnUse" maskUnits="objectBoundingBox" x="0" y="0" width="14" height="14" fill="white">
            <use xlink:href="#path-11"></use>
        </mask>
        <rect id="path-13" x="5" y="5" width="14" height="14" rx="2"></rect>
        <mask id="mask-14" maskContentUnits="userSpaceOnUse" maskUnits="objectBoundingBox" x="0" y="0" width="14" height="14" fill="white">
            <use xlink:href="#path-13"></use>
        </mask>
        <rect id="path-15" x="5" y="5" width="14" height="14" rx="2"></rect>
        <mask id="mask-16" maskContentUnits="userSpaceOnUse" maskUnits="objectBoundingBox" x="0" y="0" width="14" height="14" fill="white">
            <use xlink:href="#path-15"></use>
        </mask>
        <rect id="path-17" x="5" y="5" width="14" height="14" rx="2"></rect>
        <mask id="mask-18" maskContentUnits="userSpaceOnUse" maskUnits="objectBoundingBox" x="0" y="0" width="14" height="14" fill="white">
            <use xlink:href="#path-17"></use>
        </mask>
    </defs>
    <g id="Page-1" stroke="none" stroke-width="1" fill="none" fill-rule="evenodd">
        <g id="09漏挖_用例配置2" transform="translate(-174.000000, -225.000000)">
            <g id="Group-3" transform="translate(174.000000, 223.000000)">
                <rect id="Rectangle-18" fill="#354263" x="454" y="31" width="10" height="406" rx="2"></rect>
                <path d="M6,130.996458 L6,131.251815 L7,131.251815 L7,130.996458 L6,130.996458 Z M7.96367919,129.999587 C7.42949091,130.014948 7,130.456845 7,130.996458 L6,130.996458 C6,129.912875 6.86275734,129.030833 7.93493415,129 L7.96367919,129.999587 Z" id="Rectangle-3-Copy-8" fill-opacity="0.12" fill="#000000"></path>
                <rect id="Rectangle-18" fill="#2F3B58" x="455" y="32" width="8" height="67" rx="2"></rect>
                <g id="Group-16" transform="translate(0.000000, 33.000000)">
                    <rect id="Rectangle-5" fill="#2F3B58" x="0" y="0" width="268" height="198"></rect>
                    <text id="风暴测试" fill-opacity="0.86" fill="#FFFFFF" font-family="PingFangSC-Regular, PingFang SC" font-size="14" font-weight="normal">
                        <tspan x="44" y="25">风暴测试</tspan>
                    </text>
                    <g id="radio-off" transform="translate(8.000000, 8.000000)">
                        <g>
                            <rect id="bounds" x="0" y="0" width="24" height="24"></rect>
                            <use id="Rectangle-6" stroke="#0097A7" mask="url(#mask-2)" stroke-width="2" fill="#0097A7" xlink:href="#path-1"></use>
                            <text id="" font-family="FontAwesome" font-size="10" font-weight="normal" fill="#354263">
                                <tspan x="7" y="16"></tspan>
                            </text>
                        </g>
                    </g>
                </g>
                <g id="Group-16" transform="translate(34.000000, 73.000000)">
                    <rect id="Rectangle-5" x="0" y="0" width="316" height="40"></rect>
                    <text id="ARP-主机回复风暴测试" fill-opacity="0.86" fill="#FFFFFF" font-family="PingFangSC-Regular, PingFang SC" font-size="14" font-weight="normal">
                        <tspan x="64" y="25">ARP 主机回复风暴测试</tspan>
                    </text>
                    <g id="radio-off" transform="translate(8.000000, 8.000000)">
                        <g>
                            <rect id="bounds" x="0" y="0" width="24" height="24"></rect>
                            <use id="Rectangle-6" stroke="#0097A7" mask="url(#mask-4)" stroke-width="2" fill="#0097A7" xlink:href="#path-3"></use>
                            <text id="" font-family="FontAwesome" font-size="10" font-weight="normal" fill="#354263">
                                <tspan x="7" y="16"></tspan>
                            </text>
                        </g>
                    </g>
                </g>
                <g id="Group-16" transform="translate(34.000000, 112.000000)">
                    <rect id="Rectangle-5" x="0" y="0" width="316" height="40"></rect>
                    <text id="ARP-缓存饱和风暴测试" fill-opacity="0.86" fill="#FFFFFF" font-family="PingFangSC-Regular, PingFang SC" font-size="14" font-weight="normal">
                        <tspan x="64" y="25">ARP 缓存饱和风暴测试</tspan>
                    </text>
                    <g id="radio-off" transform="translate(8.000000, 8.000000)">
                        <g>
                            <rect id="bounds" x="0" y="0" width="24" height="24"></rect>
                            <use id="Rectangle-6" stroke="#0097A7" mask="url(#mask-6)" stroke-width="2" fill="#0097A7" xlink:href="#path-5"></use>
                            <text id="" font-family="FontAwesome" font-size="10" font-weight="normal" fill="#354263">
                                <tspan x="7" y="16"></tspan>
                            </text>
                        </g>
                    </g>
                </g>
                <g id="Group-16" transform="translate(34.000000, 151.000000)">
                    <rect id="Rectangle-5" x="0" y="0" width="316" height="40"></rect>
                    <text id="ICMP-风暴测试" fill-opacity="0.86" fill="#FFFFFF" font-family="PingFangSC-Regular, PingFang SC" font-size="14" font-weight="normal">
                        <tspan x="64" y="25">ICMP 风暴测试</tspan>
                    </text>
                    <g id="radio-off" transform="translate(8.000000, 8.000000)">
                        <g>
                            <rect id="bounds" x="0" y="0" width="24" height="24"></rect>
                            <use id="Rectangle-6" stroke="#0097A7" mask="url(#mask-8)" stroke-width="2" fill="#0097A7" xlink:href="#path-7"></use>
                            <text id="" font-family="FontAwesome" font-size="10" font-weight="normal" fill="#354263">
                                <tspan x="7" y="16"></tspan>
                            </text>
                        </g>
                    </g>
                </g>
                <g id="Group-16" transform="translate(34.000000, 190.000000)">
                    <rect id="Rectangle-5" x="0" y="0" width="316" height="40"></rect>
                    <text id="IGMPv2-回复风暴测试" fill-opacity="0.86" fill="#FFFFFF" font-family="PingFangSC-Regular, PingFang SC" font-size="14" font-weight="normal">
                        <tspan x="64" y="25">IGMPv2 回复风暴测试</tspan>
                    </text>
                    <g id="radio-off" transform="translate(8.000000, 8.000000)">
                        <g>
                            <rect id="bounds" x="0" y="0" width="24" height="24"></rect>
                            <use id="Rectangle-6" stroke="#0097A7" mask="url(#mask-10)" stroke-width="2" fill="#0097A7" xlink:href="#path-9"></use>
                            <text id="" font-family="FontAwesome" font-size="10" font-weight="normal" fill="#354263">
                                <tspan x="7" y="16"></tspan>
                            </text>
                        </g>
                    </g>
                </g>
                <g id="Group-15" transform="translate(0.000000, 232.000000)">
                    <rect id="Rectangle-5" x="0" y="0" width="218" height="40"></rect>
                    <text id="弱口令检测" fill-opacity="0.86" fill="#FFFFFF" font-family="PingFangSC-Regular, PingFang SC" font-size="14" font-weight="normal">
                        <tspan x="44" y="25">弱口令检测</tspan>
                    </text>
                    <g id="radio-off" transform="translate(8.000000, 8.000000)">
                        <g>
                            <rect id="bounds" x="0" y="0" width="24" height="24"></rect>
                            <use id="Rectangle-6" stroke="#0097A7" mask="url(#mask-12)" stroke-width="2" fill="#0097A7" xlink:href="#path-11"></use>
                            <rect id="Rectangle-6-Copy" fill="#354263" x="7" y="7" width="10" height="10" rx="2"></rect>
                        </g>
                    </g>
                </g>
                <g id="Group-14" transform="translate(0.000000, 272.000000)">
                    <rect id="Rectangle-5" x="0" y="0" width="218" height="40"></rect>
                    <text id="其他协议模糊测试" fill-opacity="0.86" fill="#FFFFFF" font-family="PingFangSC-Regular, PingFang SC" font-size="14" font-weight="normal">
                        <tspan x="44" y="25">其他协议模糊测试</tspan>
                    </text>
                    <g id="radio-off" transform="translate(8.000000, 8.000000)">
                        <g>
                            <rect id="bounds" x="0" y="0" width="24" height="24"></rect>
                            <use id="Rectangle-6" stroke="#0097A7" mask="url(#mask-14)" stroke-width="2" fill="#0097A7" xlink:href="#path-13"></use>
                            <rect id="Rectangle-6-Copy" fill="#354263" x="7" y="7" width="10" height="10" rx="2"></rect>
                        </g>
                    </g>
                </g>
                <g id="Group-13" transform="translate(0.000000, 312.000000)">
                    <rect id="Rectangle-5" x="0" y="0" width="218" height="40"></rect>
                    <text id="Profine协议模糊分析" fill-opacity="0.86" fill="#FFFFFF" font-family="PingFangSC-Regular, PingFang SC" font-size="14" font-weight="normal">
                        <tspan x="44" y="25">Profine协议模糊分析</tspan>
                    </text>
                    <g id="radio-off" transform="translate(8.000000, 8.000000)">
                        <g>
                            <rect id="bounds" x="0" y="0" width="24" height="24"></rect>
                            <use id="Rectangle-6" stroke="#0097A7" mask="url(#mask-16)" stroke-width="2" fill="#0097A7" xlink:href="#path-15"></use>
                            <rect id="Rectangle-6-Copy" fill="#354263" x="7" y="7" width="10" height="10" rx="2"></rect>
                        </g>
                    </g>
                </g>
                <text id="" font-family="FontAwesome" font-size="16" font-weight="normal" fill="#29B6F6">
                    <tspan x="255" y="98"></tspan>
                </text>
                <text id="" font-family="FontAwesome" font-size="16" font-weight="normal" fill="#29B6F6">
                    <tspan x="255" y="137"></tspan>
                </text>
                <text id="" font-family="FontAwesome" font-size="16" font-weight="normal" fill="#29B6F6">
                    <tspan x="255" y="216"></tspan>
                </text>
                <text id="" font-family="FontAwesome" font-size="16" font-weight="normal" fill="#29B6F6">
                    <tspan x="205" y="176"></tspan>
                </text>
                <text id="" font-family="FontAwesome" font-size="16" font-weight="normal" fill-opacity="0.56" fill="#FFFFFF">
                    <tspan x="441" y="15"></tspan>
                </text>
                <g id="Group-12" transform="translate(0.000000, 352.000000)">
                    <rect id="Rectangle-5" fill="#2F3B58" x="0" y="0" width="268" height="40"></rect>
                    <text id="Modbus测试" fill-opacity="0.86" fill="#FFFFFF" font-family="PingFangSC-Regular, PingFang SC" font-size="14" font-weight="normal">
                        <tspan x="44" y="25">Modbus测试</tspan>
                    </text>
                </g>
                <g id="radio-off" transform="translate(8.000000, 360.000000)">
                    <g>
                        <rect id="bounds" x="0" y="0" width="24" height="24"></rect>
                        <use id="Rectangle-6" stroke="#0097A7" mask="url(#mask-18)" stroke-width="2" fill="#0097A7" xlink:href="#path-17"></use>
                        <text id="" font-family="FontAwesome" font-size="10" font-weight="normal" fill="#354263">
                            <tspan x="7" y="16"></tspan>
                        </text>
                    </g>
                </g>
                <g id="Group-17" transform="translate(12.000000, 0.000000)" fill="#FFFFFF" font-size="14" font-weight="normal">
                    <text id="全部测试用例" fill-opacity="0.86" font-family="PingFangSC-Regular, PingFang SC">
                        <tspan x="0" y="15">全部测试用例</tspan>
                        <tspan x="84" y="15" font-family="FontAwesome">  </tspan>
                    </text>
                    <text id="" font-family="FontAwesome" fill-opacity="0.54">
                        <tspan x="150" y="13"></tspan>
                    </text>
                </g>
                <path d="M3.5,25.5 L178.525712,25.5" id="Line" stroke-opacity="0.12" stroke="#FFFFFF" stroke-linecap="square"></path>
                <path d="M204,26 L463.5,26" id="Line-Copy" stroke-opacity="0.12" stroke="#FFFFFF" stroke-linecap="square"></path>
                <text id="32" fill-opacity="0.540000021" fill="#FFFFFF" font-family="PingFangSC-Regular, PingFang SC" font-size="14" font-weight="normal">
                    <tspan x="406.2" y="60">32</tspan>
                </text>
                <text id="12" fill-opacity="0.540000021" fill="#FFFFFF" font-family="PingFangSC-Regular, PingFang SC" font-size="14" font-weight="normal">
                    <tspan x="406.986" y="256">12</tspan>
                </text>
                <text id="67" fill-opacity="0.540000021" fill="#FFFFFF" font-family="PingFangSC-Regular, PingFang SC" font-size="14" font-weight="normal">
                    <tspan x="406.942" y="296">67</tspan>
                </text>
                <text id="10" fill-opacity="0.540000021" fill="#FFFFFF" font-family="PingFangSC-Regular, PingFang SC" font-size="14" font-weight="normal">
                    <tspan x="406.986" y="336">10</tspan>
                </text>
                <text id="56" fill-opacity="0.540000021" fill="#FFFFFF" font-family="PingFangSC-Regular, PingFang SC" font-size="14" font-weight="normal">
                    <tspan x="406.2" y="376">56</tspan>
                </text>
                <g id="Group-19" transform="translate(120.000000, 44.000000)">
                    <rect id="Rectangle-7" fill="#5E8C3E" x="0" y="1" width="16" height="16" rx="2"></rect>
                    <text id="荐" font-family="PingFangSC-Regular, PingFang SC" font-size="12" font-weight="normal" fill-opacity="0.86" fill="#FFFFFF">
                        <tspan x="2" y="13">荐</tspan>
                    </text>
                </g>
                <g id="例" transform="translate(70.000000, 82.000000)" opacity="0.54" fill="#FFFFFF">
                    <g transform="translate(3.000000, 3.000000)" id="Group">
                        <g>
                            <polygon id="Shape" points="1.6389755 2.80389755 3.29877506 2.80389755 3.29877506 4.47349666 1.6389755 4.47349666"></polygon>
                            <path d="M1.64877506,2.80389755 L3.30734967,2.80389755 L3.30734967,4.47349666 L1.64877506,4.47349666 L1.64877506,2.80389755 Z M4.44654788,2.80389755 L6.10634744,2.80389755 L6.10634744,4.47349666 L4.44654788,4.47349666 L4.44654788,2.80389755 Z M1.64877506,5.56982183 L3.30734967,5.56982183 L3.30734967,7.23942094 L1.64877506,7.23942094 L1.64877506,5.56982183 Z M6.10634744,5.97405345 L6.10634744,5.56982183 L4.44654788,5.56982183 L4.44654788,7.23942094 L5.36158129,7.23942094 C5.51469933,6.76169265 5.77193764,6.33296214 6.10634744,5.97405345 Z" id="Shape"></path>
                            <path d="M5.2096882,8.45579065 L0.50467706,8.45579065 C0.48752784,8.45579065 0.472828508,8.44109131 0.472828508,8.42394209 L0.472828508,1.627951 C0.472828508,1.61080178 0.48752784,1.59610245 0.50467706,1.59610245 L7.30066815,1.59610245 C7.31781737,1.59610245 7.3325167,1.61080178 7.3325167,1.627951 L7.3325167,5.13496659 C7.4844098,5.07494432 7.64120267,5.02594655 7.80289532,4.98797327 L7.80289532,1.627951 C7.80289532,1.35111359 7.57750557,1.12694878 7.3018931,1.12694878 L1.57160356,1.12694878 L1.57160356,0.51325167 C1.57160356,0.49610245 1.5863029,0.481403118 1.60345212,0.481403118 L8.39944321,0.481403118 C8.41659243,0.481403118 8.43129176,0.49610245 8.43129176,0.51325167 L8.43129176,4.90467706 C8.47783964,4.90222717 8.52438753,4.89732739 8.57216036,4.89732739 C8.68363029,4.89732739 8.79265033,4.90345212 8.90167038,4.91447661 L8.90167038,0.512026726 C8.90167038,0.23518931 8.67628062,0.0110244989 8.40066815,0.0110244989 L1.60345212,0.0110244989 C1.3266147,0.0110244989 1.10244989,0.236414254 1.10244989,0.512026726 L1.10244989,1.12694878 L0.50467706,1.12694878 C0.227839644,1.12694878 0.00367483296,1.35233853 0.00367483296,1.627951 L0.00367483296,8.42394209 C0.00367483296,8.70077951 0.229064588,8.92494432 0.50467706,8.92494432 L5.26603563,8.92494432 C5.23541203,8.77182628 5.21826281,8.61503341 5.2096882,8.45579065 L5.2096882,8.45579065 Z" id="Shape"></path>
                            <path d="M8.57093541,5.84910913 C7.2357461,5.84910913 6.15289532,6.93195991 6.15289532,8.26714922 C6.15289532,9.60233853 7.2357461,10.6851893 8.57093541,10.6851893 C9.90612472,10.6851893 10.9889755,9.60233853 10.9889755,8.26714922 C10.9889755,6.93195991 9.90734967,5.84910913 8.57093541,5.84910913 Z M9.13808463,7.25289532 L9.35489978,7.25289532 L9.35489978,9.04988864 L9.13808463,9.04988864 L9.13808463,7.25289532 Z M7.59832962,9.76525612 L7.39008909,9.76525612 L7.39008909,7.97438753 C7.30066815,8.16057906 7.20022272,8.34554566 7.08997773,8.52806236 C7.06547884,8.44599109 7.03240535,8.35289532 6.99198218,8.24632517 C7.25534521,7.79922049 7.45011136,7.30434298 7.57628062,6.76169265 L7.80289532,6.8045657 C7.74899777,7.03363029 7.68040089,7.25902004 7.59832962,7.48073497 L7.59832962,9.76525612 Z M9.06458797,7.15489978 L8.43986637,7.15489978 C8.40801782,7.32271715 8.37249443,7.47951002 8.33452116,7.62650334 L8.9298441,7.62650334 L8.9298441,7.83719376 C8.84654788,8.64075724 8.51826281,9.2863029 7.94743875,9.77138085 C7.90211581,9.71013363 7.84699332,9.64398664 7.77962138,9.57293987 C8.06870824,9.34020045 8.29164811,9.0596882 8.44966592,8.73140312 C8.34922049,8.64933185 8.23775056,8.56113586 8.11648107,8.46804009 L8.2389755,8.29654788 C8.33207127,8.36024499 8.4325167,8.43374165 8.5403118,8.51826281 C8.61870824,8.30879733 8.67383073,8.08218263 8.70445434,7.83719376 L8.27449889,7.83719376 C8.15935412,8.21080178 8.01726058,8.51091314 7.84699332,8.73752784 C7.80412027,8.67260579 7.75512249,8.60890869 7.7,8.54766147 C7.93028953,8.21570156 8.10178174,7.75144766 8.21325167,7.15489978 L7.88129176,7.15489978 L7.88129176,6.94053452 L9.06458797,6.94053452 L9.06458797,7.15489978 L9.06458797,7.15489978 Z M9.90367483,9.327951 C9.90367483,9.48351893 9.87917595,9.58886414 9.83017817,9.64643653 C9.78730512,9.69910913 9.70155902,9.72728285 9.57293987,9.7285078 C9.48474388,9.73095768 9.34387528,9.7285078 9.14788419,9.72238307 C9.13930958,9.63908686 9.12583519,9.5545657 9.10501114,9.4688196 C9.26180401,9.48474388 9.39042316,9.49331849 9.4908686,9.49331849 C9.57048998,9.49576837 9.62193764,9.48106904 9.64398664,9.45044543 C9.66848552,9.42349666 9.68073497,9.35857461 9.68073497,9.25445434 L9.68073497,6.7714922 L9.90367483,6.7714922 L9.90367483,9.327951 Z" id="Shape"></path>
                        </g>
                    </g>
                </g>
                <g id="例" transform="translate(70.000000, 120.000000)" opacity="0.54" fill="#FFFFFF">
                    <g transform="translate(3.000000, 3.000000)" id="Group">
                        <g>
                            <polygon id="Shape" points="1.6389755 2.80389755 3.29877506 2.80389755 3.29877506 4.47349666 1.6389755 4.47349666"></polygon>
                            <path d="M1.64877506,2.80389755 L3.30734967,2.80389755 L3.30734967,4.47349666 L1.64877506,4.47349666 L1.64877506,2.80389755 Z M4.44654788,2.80389755 L6.10634744,2.80389755 L6.10634744,4.47349666 L4.44654788,4.47349666 L4.44654788,2.80389755 Z M1.64877506,5.56982183 L3.30734967,5.56982183 L3.30734967,7.23942094 L1.64877506,7.23942094 L1.64877506,5.56982183 Z M6.10634744,5.97405345 L6.10634744,5.56982183 L4.44654788,5.56982183 L4.44654788,7.23942094 L5.36158129,7.23942094 C5.51469933,6.76169265 5.77193764,6.33296214 6.10634744,5.97405345 Z" id="Shape"></path>
                            <path d="M5.2096882,8.45579065 L0.50467706,8.45579065 C0.48752784,8.45579065 0.472828508,8.44109131 0.472828508,8.42394209 L0.472828508,1.627951 C0.472828508,1.61080178 0.48752784,1.59610245 0.50467706,1.59610245 L7.30066815,1.59610245 C7.31781737,1.59610245 7.3325167,1.61080178 7.3325167,1.627951 L7.3325167,5.13496659 C7.4844098,5.07494432 7.64120267,5.02594655 7.80289532,4.98797327 L7.80289532,1.627951 C7.80289532,1.35111359 7.57750557,1.12694878 7.3018931,1.12694878 L1.57160356,1.12694878 L1.57160356,0.51325167 C1.57160356,0.49610245 1.5863029,0.481403118 1.60345212,0.481403118 L8.39944321,0.481403118 C8.41659243,0.481403118 8.43129176,0.49610245 8.43129176,0.51325167 L8.43129176,4.90467706 C8.47783964,4.90222717 8.52438753,4.89732739 8.57216036,4.89732739 C8.68363029,4.89732739 8.79265033,4.90345212 8.90167038,4.91447661 L8.90167038,0.512026726 C8.90167038,0.23518931 8.67628062,0.0110244989 8.40066815,0.0110244989 L1.60345212,0.0110244989 C1.3266147,0.0110244989 1.10244989,0.236414254 1.10244989,0.512026726 L1.10244989,1.12694878 L0.50467706,1.12694878 C0.227839644,1.12694878 0.00367483296,1.35233853 0.00367483296,1.627951 L0.00367483296,8.42394209 C0.00367483296,8.70077951 0.229064588,8.92494432 0.50467706,8.92494432 L5.26603563,8.92494432 C5.23541203,8.77182628 5.21826281,8.61503341 5.2096882,8.45579065 L5.2096882,8.45579065 Z" id="Shape"></path>
                            <path d="M8.57093541,5.84910913 C7.2357461,5.84910913 6.15289532,6.93195991 6.15289532,8.26714922 C6.15289532,9.60233853 7.2357461,10.6851893 8.57093541,10.6851893 C9.90612472,10.6851893 10.9889755,9.60233853 10.9889755,8.26714922 C10.9889755,6.93195991 9.90734967,5.84910913 8.57093541,5.84910913 Z M9.13808463,7.25289532 L9.35489978,7.25289532 L9.35489978,9.04988864 L9.13808463,9.04988864 L9.13808463,7.25289532 Z M7.59832962,9.76525612 L7.39008909,9.76525612 L7.39008909,7.97438753 C7.30066815,8.16057906 7.20022272,8.34554566 7.08997773,8.52806236 C7.06547884,8.44599109 7.03240535,8.35289532 6.99198218,8.24632517 C7.25534521,7.79922049 7.45011136,7.30434298 7.57628062,6.76169265 L7.80289532,6.8045657 C7.74899777,7.03363029 7.68040089,7.25902004 7.59832962,7.48073497 L7.59832962,9.76525612 Z M9.06458797,7.15489978 L8.43986637,7.15489978 C8.40801782,7.32271715 8.37249443,7.47951002 8.33452116,7.62650334 L8.9298441,7.62650334 L8.9298441,7.83719376 C8.84654788,8.64075724 8.51826281,9.2863029 7.94743875,9.77138085 C7.90211581,9.71013363 7.84699332,9.64398664 7.77962138,9.57293987 C8.06870824,9.34020045 8.29164811,9.0596882 8.44966592,8.73140312 C8.34922049,8.64933185 8.23775056,8.56113586 8.11648107,8.46804009 L8.2389755,8.29654788 C8.33207127,8.36024499 8.4325167,8.43374165 8.5403118,8.51826281 C8.61870824,8.30879733 8.67383073,8.08218263 8.70445434,7.83719376 L8.27449889,7.83719376 C8.15935412,8.21080178 8.01726058,8.51091314 7.84699332,8.73752784 C7.80412027,8.67260579 7.75512249,8.60890869 7.7,8.54766147 C7.93028953,8.21570156 8.10178174,7.75144766 8.21325167,7.15489978 L7.88129176,7.15489978 L7.88129176,6.94053452 L9.06458797,6.94053452 L9.06458797,7.15489978 L9.06458797,7.15489978 Z M9.90367483,9.327951 C9.90367483,9.48351893 9.87917595,9.58886414 9.83017817,9.64643653 C9.78730512,9.69910913 9.70155902,9.72728285 9.57293987,9.7285078 C9.48474388,9.73095768 9.34387528,9.7285078 9.14788419,9.72238307 C9.13930958,9.63908686 9.12583519,9.5545657 9.10501114,9.4688196 C9.26180401,9.48474388 9.39042316,9.49331849 9.4908686,9.49331849 C9.57048998,9.49576837 9.62193764,9.48106904 9.64398664,9.45044543 C9.66848552,9.42349666 9.68073497,9.35857461 9.68073497,9.25445434 L9.68073497,6.7714922 L9.90367483,6.7714922 L9.90367483,9.327951 Z" id="Shape"></path>
                        </g>
                    </g>
                </g>
                <g id="例" transform="translate(70.000000, 159.000000)" opacity="0.54" fill="#FFFFFF">
                    <g transform="translate(3.000000, 3.000000)" id="Group">
                        <g>
                            <polygon id="Shape" points="1.6389755 2.80389755 3.29877506 2.80389755 3.29877506 4.47349666 1.6389755 4.47349666"></polygon>
                            <path d="M1.64877506,2.80389755 L3.30734967,2.80389755 L3.30734967,4.47349666 L1.64877506,4.47349666 L1.64877506,2.80389755 Z M4.44654788,2.80389755 L6.10634744,2.80389755 L6.10634744,4.47349666 L4.44654788,4.47349666 L4.44654788,2.80389755 Z M1.64877506,5.56982183 L3.30734967,5.56982183 L3.30734967,7.23942094 L1.64877506,7.23942094 L1.64877506,5.56982183 Z M6.10634744,5.97405345 L6.10634744,5.56982183 L4.44654788,5.56982183 L4.44654788,7.23942094 L5.36158129,7.23942094 C5.51469933,6.76169265 5.77193764,6.33296214 6.10634744,5.97405345 Z" id="Shape"></path>
                            <path d="M5.2096882,8.45579065 L0.50467706,8.45579065 C0.48752784,8.45579065 0.472828508,8.44109131 0.472828508,8.42394209 L0.472828508,1.627951 C0.472828508,1.61080178 0.48752784,1.59610245 0.50467706,1.59610245 L7.30066815,1.59610245 C7.31781737,1.59610245 7.3325167,1.61080178 7.3325167,1.627951 L7.3325167,5.13496659 C7.4844098,5.07494432 7.64120267,5.02594655 7.80289532,4.98797327 L7.80289532,1.627951 C7.80289532,1.35111359 7.57750557,1.12694878 7.3018931,1.12694878 L1.57160356,1.12694878 L1.57160356,0.51325167 C1.57160356,0.49610245 1.5863029,0.481403118 1.60345212,0.481403118 L8.39944321,0.481403118 C8.41659243,0.481403118 8.43129176,0.49610245 8.43129176,0.51325167 L8.43129176,4.90467706 C8.47783964,4.90222717 8.52438753,4.89732739 8.57216036,4.89732739 C8.68363029,4.89732739 8.79265033,4.90345212 8.90167038,4.91447661 L8.90167038,0.512026726 C8.90167038,0.23518931 8.67628062,0.0110244989 8.40066815,0.0110244989 L1.60345212,0.0110244989 C1.3266147,0.0110244989 1.10244989,0.236414254 1.10244989,0.512026726 L1.10244989,1.12694878 L0.50467706,1.12694878 C0.227839644,1.12694878 0.00367483296,1.35233853 0.00367483296,1.627951 L0.00367483296,8.42394209 C0.00367483296,8.70077951 0.229064588,8.92494432 0.50467706,8.92494432 L5.26603563,8.92494432 C5.23541203,8.77182628 5.21826281,8.61503341 5.2096882,8.45579065 L5.2096882,8.45579065 Z" id="Shape"></path>
                            <path d="M8.57093541,5.84910913 C7.2357461,5.84910913 6.15289532,6.93195991 6.15289532,8.26714922 C6.15289532,9.60233853 7.2357461,10.6851893 8.57093541,10.6851893 C9.90612472,10.6851893 10.9889755,9.60233853 10.9889755,8.26714922 C10.9889755,6.93195991 9.90734967,5.84910913 8.57093541,5.84910913 Z M9.13808463,7.25289532 L9.35489978,7.25289532 L9.35489978,9.04988864 L9.13808463,9.04988864 L9.13808463,7.25289532 Z M7.59832962,9.76525612 L7.39008909,9.76525612 L7.39008909,7.97438753 C7.30066815,8.16057906 7.20022272,8.34554566 7.08997773,8.52806236 C7.06547884,8.44599109 7.03240535,8.35289532 6.99198218,8.24632517 C7.25534521,7.79922049 7.45011136,7.30434298 7.57628062,6.76169265 L7.80289532,6.8045657 C7.74899777,7.03363029 7.68040089,7.25902004 7.59832962,7.48073497 L7.59832962,9.76525612 Z M9.06458797,7.15489978 L8.43986637,7.15489978 C8.40801782,7.32271715 8.37249443,7.47951002 8.33452116,7.62650334 L8.9298441,7.62650334 L8.9298441,7.83719376 C8.84654788,8.64075724 8.51826281,9.2863029 7.94743875,9.77138085 C7.90211581,9.71013363 7.84699332,9.64398664 7.77962138,9.57293987 C8.06870824,9.34020045 8.29164811,9.0596882 8.44966592,8.73140312 C8.34922049,8.64933185 8.23775056,8.56113586 8.11648107,8.46804009 L8.2389755,8.29654788 C8.33207127,8.36024499 8.4325167,8.43374165 8.5403118,8.51826281 C8.61870824,8.30879733 8.67383073,8.08218263 8.70445434,7.83719376 L8.27449889,7.83719376 C8.15935412,8.21080178 8.01726058,8.51091314 7.84699332,8.73752784 C7.80412027,8.67260579 7.75512249,8.60890869 7.7,8.54766147 C7.93028953,8.21570156 8.10178174,7.75144766 8.21325167,7.15489978 L7.88129176,7.15489978 L7.88129176,6.94053452 L9.06458797,6.94053452 L9.06458797,7.15489978 L9.06458797,7.15489978 Z M9.90367483,9.327951 C9.90367483,9.48351893 9.87917595,9.58886414 9.83017817,9.64643653 C9.78730512,9.69910913 9.70155902,9.72728285 9.57293987,9.7285078 C9.48474388,9.73095768 9.34387528,9.7285078 9.14788419,9.72238307 C9.13930958,9.63908686 9.12583519,9.5545657 9.10501114,9.4688196 C9.26180401,9.48474388 9.39042316,9.49331849 9.4908686,9.49331849 C9.57048998,9.49576837 9.62193764,9.48106904 9.64398664,9.45044543 C9.66848552,9.42349666 9.68073497,9.35857461 9.68073497,9.25445434 L9.68073497,6.7714922 L9.90367483,6.7714922 L9.90367483,9.327951 Z" id="Shape"></path>
                        </g>
                    </g>
                </g>
                <g id="例" transform="translate(70.000000, 198.000000)" opacity="0.54" fill="#FFFFFF">
                    <g transform="translate(3.000000, 3.000000)" id="Group">
                        <g>
                            <polygon id="Shape" points="1.6389755 2.80389755 3.29877506 2.80389755 3.29877506 4.47349666 1.6389755 4.47349666"></polygon>
                            <path d="M1.64877506,2.80389755 L3.30734967,2.80389755 L3.30734967,4.47349666 L1.64877506,4.47349666 L1.64877506,2.80389755 Z M4.44654788,2.80389755 L6.10634744,2.80389755 L6.10634744,4.47349666 L4.44654788,4.47349666 L4.44654788,2.80389755 Z M1.64877506,5.56982183 L3.30734967,5.56982183 L3.30734967,7.23942094 L1.64877506,7.23942094 L1.64877506,5.56982183 Z M6.10634744,5.97405345 L6.10634744,5.56982183 L4.44654788,5.56982183 L4.44654788,7.23942094 L5.36158129,7.23942094 C5.51469933,6.76169265 5.77193764,6.33296214 6.10634744,5.97405345 Z" id="Shape"></path>
                            <path d="M5.2096882,8.45579065 L0.50467706,8.45579065 C0.48752784,8.45579065 0.472828508,8.44109131 0.472828508,8.42394209 L0.472828508,1.627951 C0.472828508,1.61080178 0.48752784,1.59610245 0.50467706,1.59610245 L7.30066815,1.59610245 C7.31781737,1.59610245 7.3325167,1.61080178 7.3325167,1.627951 L7.3325167,5.13496659 C7.4844098,5.07494432 7.64120267,5.02594655 7.80289532,4.98797327 L7.80289532,1.627951 C7.80289532,1.35111359 7.57750557,1.12694878 7.3018931,1.12694878 L1.57160356,1.12694878 L1.57160356,0.51325167 C1.57160356,0.49610245 1.5863029,0.481403118 1.60345212,0.481403118 L8.39944321,0.481403118 C8.41659243,0.481403118 8.43129176,0.49610245 8.43129176,0.51325167 L8.43129176,4.90467706 C8.47783964,4.90222717 8.52438753,4.89732739 8.57216036,4.89732739 C8.68363029,4.89732739 8.79265033,4.90345212 8.90167038,4.91447661 L8.90167038,0.512026726 C8.90167038,0.23518931 8.67628062,0.0110244989 8.40066815,0.0110244989 L1.60345212,0.0110244989 C1.3266147,0.0110244989 1.10244989,0.236414254 1.10244989,0.512026726 L1.10244989,1.12694878 L0.50467706,1.12694878 C0.227839644,1.12694878 0.00367483296,1.35233853 0.00367483296,1.627951 L0.00367483296,8.42394209 C0.00367483296,8.70077951 0.229064588,8.92494432 0.50467706,8.92494432 L5.26603563,8.92494432 C5.23541203,8.77182628 5.21826281,8.61503341 5.2096882,8.45579065 L5.2096882,8.45579065 Z" id="Shape"></path>
                            <path d="M8.57093541,5.84910913 C7.2357461,5.84910913 6.15289532,6.93195991 6.15289532,8.26714922 C6.15289532,9.60233853 7.2357461,10.6851893 8.57093541,10.6851893 C9.90612472,10.6851893 10.9889755,9.60233853 10.9889755,8.26714922 C10.9889755,6.93195991 9.90734967,5.84910913 8.57093541,5.84910913 Z M9.13808463,7.25289532 L9.35489978,7.25289532 L9.35489978,9.04988864 L9.13808463,9.04988864 L9.13808463,7.25289532 Z M7.59832962,9.76525612 L7.39008909,9.76525612 L7.39008909,7.97438753 C7.30066815,8.16057906 7.20022272,8.34554566 7.08997773,8.52806236 C7.06547884,8.44599109 7.03240535,8.35289532 6.99198218,8.24632517 C7.25534521,7.79922049 7.45011136,7.30434298 7.57628062,6.76169265 L7.80289532,6.8045657 C7.74899777,7.03363029 7.68040089,7.25902004 7.59832962,7.48073497 L7.59832962,9.76525612 Z M9.06458797,7.15489978 L8.43986637,7.15489978 C8.40801782,7.32271715 8.37249443,7.47951002 8.33452116,7.62650334 L8.9298441,7.62650334 L8.9298441,7.83719376 C8.84654788,8.64075724 8.51826281,9.2863029 7.94743875,9.77138085 C7.90211581,9.71013363 7.84699332,9.64398664 7.77962138,9.57293987 C8.06870824,9.34020045 8.29164811,9.0596882 8.44966592,8.73140312 C8.34922049,8.64933185 8.23775056,8.56113586 8.11648107,8.46804009 L8.2389755,8.29654788 C8.33207127,8.36024499 8.4325167,8.43374165 8.5403118,8.51826281 C8.61870824,8.30879733 8.67383073,8.08218263 8.70445434,7.83719376 L8.27449889,7.83719376 C8.15935412,8.21080178 8.01726058,8.51091314 7.84699332,8.73752784 C7.80412027,8.67260579 7.75512249,8.60890869 7.7,8.54766147 C7.93028953,8.21570156 8.10178174,7.75144766 8.21325167,7.15489978 L7.88129176,7.15489978 L7.88129176,6.94053452 L9.06458797,6.94053452 L9.06458797,7.15489978 L9.06458797,7.15489978 Z M9.90367483,9.327951 C9.90367483,9.48351893 9.87917595,9.58886414 9.83017817,9.64643653 C9.78730512,9.69910913 9.70155902,9.72728285 9.57293987,9.7285078 C9.48474388,9.73095768 9.34387528,9.7285078 9.14788419,9.72238307 C9.13930958,9.63908686 9.12583519,9.5545657 9.10501114,9.4688196 C9.26180401,9.48474388 9.39042316,9.49331849 9.4908686,9.49331849 C9.57048998,9.49576837 9.62193764,9.48106904 9.64398664,9.45044543 C9.66848552,9.42349666 9.68073497,9.35857461 9.68073497,9.25445434 L9.68073497,6.7714922 L9.90367483,6.7714922 L9.90367483,9.327951 Z" id="Shape"></path>
                        </g>
                    </g>
                </g>
            </g>
        </g>
    </g>
</svg>