<?xml version="1.0" encoding="UTF-8"?>
<svg width="51px" height="36px" viewBox="0 0 51 36" version="1.1" xmlns="http://www.w3.org/2000/svg" xmlns:xlink="http://www.w3.org/1999/xlink">
    <!-- Generator: Sketch 41.2 (35397) - http://www.bohemiancoding.com/sketch -->
    <title>Fill 1</title>
    <desc>Created with Sketch.</desc>
    <defs></defs>
    <g id="Page-1" stroke="none" stroke-width="1" fill="none" fill-rule="evenodd">
        <g id="01工具库" transform="translate(-186.000000, -82.000000)" fill="#0097A7">
            <path d="M226.407707,117.999758 C230.152457,117.999758 232.677488,116.882938 234.367976,114.57801 C236.272449,111.916651 237,108.067185 237,104.859296 C237,101.865267 236.336644,99.4177671 234.988534,97.5167962 C234.15399,96.2811651 232.998467,95.3544418 231.693154,94.8316748 C230.387841,94.3089078 228.547564,94 226.21512,94 L218.297648,94 L218.297648,110.200869 L221.293448,110.200869 L221.293448,97.0890778 L225.530365,97.0177913 C228.590361,97.0177913 230.880008,97.4455098 232.185321,98.704903 C233.490634,99.9642963 234.218186,101.912791 234.218186,104.811772 C234.218186,111.892889 231.436371,115.124539 226.21512,115.124539 L197.220055,115.124539 C194.780617,115.124539 190.5437,113.865146 189.152793,107.829563 C187.719089,101.651408 193.453906,99.6316264 193.453906,99.6316264 L192.127194,96.8514564 C192.127194,96.8514564 183.589164,100.534588 186.670559,109.778059 C189.473772,118.166093 194.759219,117.999758 196.899076,117.999758 L226.407707,117.999758 Z M212.220793,89.1630439 C212.220793,89.1630439 214.87236,88.3542016 218.531707,88.5166871 C222.246248,88.7646835 223.827156,91.6036529 223.827156,91.6036529 L227,91.6500773 C227,91.6500773 223.947448,86.0880659 218.783059,85.7295125 C216.825933,85.7069894 214.940718,85.2668689 213.01586,86.3114183 C212.698575,85.8935986 212.151091,85.5159152 211.77035,85.1213076 C209.295532,82.4286915 199.946219,79.4111045 194.636994,85.7944617 C192.796745,87.9996214 192.627526,91.9689089 193.537075,94.2669175 C195.715761,99.23433 203.415195,110 203.415195,110 L206.947628,110 L217.227641,94.3133419 L213.610599,94.3133419 L205.191987,107.005625 C205.191987,107.005625 197.323335,95.4275279 196.583005,93.6401879 C192.965963,84.8659734 204.367048,81.8251741 210.628126,87.9996214 C211.114629,88.4638656 212.220793,89.1630439 212.220793,89.1630439 Z" id="Fill-1"></path>
        </g>
    </g>
</svg>