<?xml version="1.0" standalone="no"?><!DOCTYPE svg PUBLIC "-//W3C//DTD SVG 1.1//EN" "http://www.w3.org/Graphics/SVG/1.1/DTD/svg11.dtd"><svg t="1490584998880" class="icon" style="" viewBox="0 0 1024 1024" version="1.1" xmlns="http://www.w3.org/2000/svg" p-id="5234" xmlns:xlink="http://www.w3.org/1999/xlink" width="32" height="32"><defs><style type="text/css"></style></defs><path d="M197.8 291.9h135.5v136.3H197.8V291.9z" p-id="5235" fill="#ffffff"></path><path d="M198.6 291.9H334v136.3H198.6V291.9zM427 291.9h135.5v136.3H427V291.9zM198.6 517.7H334V654H198.6V517.7zM562.5 550.7v-33H427V654h74.7c12.5-39 33.5-74 60.8-103.3z" p-id="5236" fill="#ffffff"></path><path d="M489.3 753.3H105.2c-1.4 0-2.6-1.2-2.6-2.6V195.9c0-1.4 1.2-2.6 2.6-2.6H660c1.4 0 2.6 1.2 2.6 2.6v286.3c12.4-4.9 25.2-8.9 38.4-12V195.9c0-22.6-18.4-40.9-40.9-40.9H192.3v-50.1c0-1.4 1.2-2.6 2.6-2.6h554.8c1.4 0 2.6 1.2 2.6 2.6v358.5c3.8-0.2 7.6-0.6 11.5-0.6 9.1 0 18 0.5 26.9 1.4V104.8c0-22.6-18.4-40.9-40.9-40.9H194.9c-22.6 0-40.9 18.4-40.9 40.9V155h-48.8c-22.6 0-40.9 18.4-40.9 40.9v554.8c0 22.6 18.4 40.9 40.9 40.9h388.7c-2.5-12.5-3.9-25.3-4.6-38.3z" p-id="5237" fill="#ffffff"></path><path d="M763.7 540.5c-109 0-197.4 88.4-197.4 197.4s88.4 197.4 197.4 197.4 197.4-88.4 197.4-197.4-88.3-197.4-197.4-197.4zM810 655.1h17.7v146.7H810V655.1zM684.3 860.2h-17V714c-7.3 15.2-15.5 30.3-24.5 45.2-2-6.7-4.7-14.3-8-23 21.5-36.5 37.4-76.9 47.7-121.2l18.5 3.5c-4.4 18.7-10 37.1-16.7 55.2v186.5zM804 647.1h-51c-2.6 13.7-5.5 26.5-8.6 38.5H793v17.2c-6.8 65.6-33.6 118.3-80.2 157.9-3.7-5-8.2-10.4-13.7-16.2 23.6-19 41.8-41.9 54.7-68.7-8.2-6.7-17.3-13.9-27.2-21.5l10-14c7.6 5.2 15.8 11.2 24.6 18.1 6.4-17.1 10.9-35.6 13.4-55.6h-35.1c-9.4 30.5-21 55-34.9 73.5-3.5-5.3-7.5-10.5-12-15.5 18.8-27.1 32.8-65 41.9-113.7h-27.1v-17.5H804v17.5z m68.5 177.4c0 12.7-2 21.3-6 26-3.5 4.3-10.5 6.6-21 6.7-7.2 0.2-18.7 0-34.7-0.5-0.7-6.8-1.8-13.7-3.5-20.7 12.8 1.3 23.3 2 31.5 2 6.5 0.2 10.7-1 12.5-3.5 2-2.2 3-7.5 3-16V615.8h18.2v208.7z" p-id="5238" fill="#ffffff"></path></svg>