<?xml version="1.0" standalone="no"?><!DOCTYPE svg PUBLIC "-//W3C//DTD SVG 1.1//EN" "http://www.w3.org/Graphics/SVG/1.1/DTD/svg11.dtd"><svg t="1490584491989" class="icon" style="" viewBox="0 0 1024 1024" version="1.1" xmlns="http://www.w3.org/2000/svg" p-id="4332" xmlns:xlink="http://www.w3.org/1999/xlink" width="32" height="32"><defs><style type="text/css"></style></defs><path d="M1021.785025 510.466556c0 281.983361-228.483195 510.466556-510.466556 510.466556S0.851913 792.449917 0.851913 510.466556 229.335108 0 511.318469 0 1021.785025 228.483195 1021.785025 510.466556zM511.318469 42.595674C252.84792 42.595674 43.447587 251.996007 43.447587 510.466556s209.570715 467.870882 467.870882 467.870882 467.870882-209.570715 467.870882-467.870882S769.789018 42.595674 511.318469 42.595674z" p-id="4333" fill="#ffffff"></path><path d="M872.870549 510.466556c0 199.688519-161.863561 361.55208-361.55208 361.55208s-361.55208-161.863561-361.55208-361.55208 161.863561-361.55208 361.55208-361.55208S872.870549 310.778037 872.870549 510.466556zM511.318469 191.339767c-176.175707 0-318.956406 142.780699-318.956406 318.956406s142.780699 318.956406 318.956406 318.956406S830.274875 686.642263 830.274875 510.466556 687.494176 191.339767 511.318469 191.339767z" p-id="4334" fill="#ffffff"></path><path d="M511.318469 510.466556m-212.637604 0a124.8 124.8 0 1 0 425.275208 0 124.8 124.8 0 1 0-425.275208 0Z" p-id="4335" fill="#ffffff"></path></svg>