<?xml version="1.0" standalone="no"?><!DOCTYPE svg PUBLIC "-//W3C//DTD SVG 1.1//EN" "http://www.w3.org/Graphics/SVG/1.1/DTD/svg11.dtd"><svg t="1490583882450" class="icon" style="" viewBox="0 0 1024 1024" version="1.1" xmlns="http://www.w3.org/2000/svg" p-id="2378" xmlns:xlink="http://www.w3.org/1999/xlink" width="32" height="32"><defs><style type="text/css"></style></defs><path d="M331.4176 474.2656C331.6224 474.4704 331.776 474.7264 331.9808 474.9312L414.5152 560.1792 443.2896 530.432 412.2112 498.3296 398.1824 483.84 470.2208 409.4464 479.6928 410.5216C482.0992 410.7776 484.608 410.9312 487.0656 410.9312 492.032 410.9312 496.896 410.3168 501.6576 409.2416L448.6144 354.4576C447.5392 353.3312 446.4128 352.3584 445.2864 351.3344 461.6192 290.6624 446.72 222.8736 400.5376 175.1552 354.7136 127.7952 289.6896 112.3328 231.2704 128.6144L330.24 230.8096 304.2816 330.9568 207.3088 357.8368 108.3392 255.5904C92.5696 315.904 107.5712 383.0784 153.4464 430.4384 201.5744 480.1536 270.848 494.7456 331.4176 474.2656ZM623.872 535.4496C622.2848 542.8224 621.824 550.4512 622.6432 558.1824L623.7184 568.0128 616.96 574.976 565.76 627.8656 551.68 642.4064 506.5728 595.7632 477.7984 625.5104 739.0208 895.3856C755.1488 912.0256 776.2432 920.32 797.3888 920.32 818.4832 920.32 839.5776 912.0256 855.6544 895.3856 887.9104 862.1056 887.9104 808.192 855.6544 774.912L623.872 535.4496ZM825.6 867.4304 784.1792 878.8992 750.5408 844.1856 761.6512 801.3824 803.072 789.8624 836.7104 824.6272 825.6 867.4304ZM506.88 567.04 551.9872 613.6832 603.2384 560.7936C600.4224 534.9888 608.5632 508.16 627.712 488.3968 646.8608 468.6336 672.8192 460.2368 697.8048 463.104L921.7024 231.8336 796.2624 102.2976 572.3648 333.568C575.1808 359.3728 567.04 386.1504 547.8912 405.9648 528.7424 425.728 502.784 434.1248 477.7984 431.2576L426.5984 484.1472 471.7056 530.7392 250.4704 759.2448 242.3808 750.8992 199.936 786.2272 128.512 902.7584 146.7392 921.6 259.5328 847.8208 293.7344 803.9424 285.6448 795.5456 506.88 567.04Z" p-id="2379" fill="#29B6F6"></path></svg>