<?xml version="1.0" standalone="no"?><!DOCTYPE svg PUBLIC "-//W3C//DTD SVG 1.1//EN" "http://www.w3.org/Graphics/SVG/1.1/DTD/svg11.dtd"><svg t="1490609338957" class="icon" style="" viewBox="0 0 1024 1024" version="1.1" xmlns="http://www.w3.org/2000/svg" p-id="5972" xmlns:xlink="http://www.w3.org/1999/xlink" width="32" height="32"><defs><style type="text/css"></style></defs><path d="M958.678 920.973l-245.26-245.26c22.842-26.868 41.352-56.853 55.15-89.475 18.125-42.851 27.314-88.354 27.314-135.248 0-46.893-9.189-92.397-27.314-135.247-17.5-41.376-42.549-78.53-74.449-110.431-31.9-31.9-69.055-56.948-110.431-74.449-42.851-18.125-88.354-27.314-135.247-27.314s-92.397 9.189-135.247 27.314c-41.376 17.5-78.53 42.549-110.43 74.449-31.9 31.9-56.949 69.055-74.449 110.431C110.19 358.593 101 404.097 101 450.99c0 67.185 19.214 132.383 55.564 188.547 7.502 11.592 22.98 14.906 34.572 7.403 11.591-7.502 14.906-22.979 7.404-34.571C167.439 564.317 151 508.513 151 450.99c0-79.449 30.939-154.143 87.118-210.322s130.873-87.118 210.322-87.118 154.144 30.939 210.323 87.118c56.179 56.179 87.118 130.873 87.118 210.322 0 79.45-30.939 154.143-87.118 210.323-56.18 56.179-130.874 87.118-210.323 87.118-55.324 0-109.306-15.287-156.11-44.208-11.748-7.258-27.151-3.619-34.409 8.126-7.258 11.746-3.62 27.151 8.126 34.409 54.708 33.805 117.779 51.673 182.394 51.673 46.893 0 92.396-9.189 135.247-27.313 34.763-14.704 66.531-34.755 94.722-59.702l244.913 244.913c4.882 4.882 11.279 7.322 17.678 7.322s12.796-2.44 17.678-7.322C968.44 946.565 968.44 930.735 958.678 920.973z" p-id="5973" fill="#ffffff"></path></svg>