<?xml version="1.0" standalone="no"?><!DOCTYPE svg PUBLIC "-//W3C//DTD SVG 1.1//EN" "http://www.w3.org/Graphics/SVG/1.1/DTD/svg11.dtd"><svg t="1490584411155" class="icon" style="" viewBox="0 0 1024 1024" version="1.1" xmlns="http://www.w3.org/2000/svg" p-id="3597" xmlns:xlink="http://www.w3.org/1999/xlink" width="32" height="32"><defs><style type="text/css"></style></defs><path d="M240.71458 698.522993c-22.444782 0-40.63425 18.193665-40.63425 40.63425 0 22.439786 18.189667 40.629453 40.63425 40.629453 22.440186 0 40.63445-18.189667 40.63445-40.629453C281.349029 716.716458 263.149768 698.522993 240.71458 698.522993zM836.645139 915.236462l-623.02359 0c-7.474932 0-13.541219 6.060891-13.541219 13.535823l0 13.546815c0 7.479929 6.066287 13.541819 13.541219 13.541819l623.02359 0c7.484925 0 13.540819-6.06189 13.540819-13.541819l0-13.546815C850.185758 921.292356 844.125067 915.236462 836.645139 915.236462zM877.274392 156.7731 145.904061 156.7731c-7.474932 0-13.541219 6.056294-13.541219 13.541819l0 433.396557c0 7.480928 6.066287 13.546815 13.541219 13.546815l731.375128 0c7.474932 0 13.541819-6.065887 13.541819-13.546815L890.821007 170.314918C890.821207 162.829394 884.754321 156.7731 877.274392 156.7731zM931.450461 89.055812 91.728592 89.055812c-14.960257 0-27.083038 12.12318-27.083038 27.083038l0 758.448372c0 14.959857 12.122781 27.087635 27.083038 27.087635L931.450461 901.674856c14.964854 0 27.087635-12.127777 27.087635-27.087635L958.538095 116.13865C958.538095 101.178993 946.415314 89.055812 931.450461 89.055812zM917.908842 847.503585c0 7.484925-6.06189 13.541819-13.546815 13.541819L118.821623 861.045403c-7.485325 0-13.546815-6.056893-13.546815-13.541819L105.274808 143.221888c0-7.485525 6.06129-13.541819 13.546815-13.541819l785.540404 0c7.484925 0 13.546815 6.056294 13.546815 13.541819L917.908842 847.503585zM877.274392 644.346725 145.904061 644.346725c-7.474932 0-13.541219 6.065887-13.541219 13.545816l0 162.518413c0 7.484925 6.066287 13.540819 13.541219 13.540819l731.375128 0c7.474932 0 13.541819-6.055894 13.541819-13.540819l0-162.518413C890.821207 650.412612 884.754321 644.346725 877.274392 644.346725zM240.71458 806.869135c-37.400043 0-67.717488-30.312448-67.717488-67.711891 0-37.400442 30.317445-67.722884 67.717488-67.722884s67.717488 30.322441 67.717488 67.722884C308.432067 776.556886 278.114622 806.869135 240.71458 806.869135zM850.185758 759.473469c0 3.733469-3.027947 6.771409-6.77041 6.771409L369.378545 766.244878c-3.737466 0-6.77041-3.03794-6.77041-6.771409l0-13.545816c0-3.742463 3.032944-6.776406 6.77041-6.776406l474.036803 0c3.742463 0 6.77041 3.033943 6.77041 6.776406L850.185758 759.473469z" p-id="3598" fill="#ffffff"></path></svg>